<?xml version="1.0" encoding="UTF-8" standalone="no"?>
<svg
   xmlns:dc="http://purl.org/dc/elements/1.1/"
   xmlns:cc="http://creativecommons.org/ns#"
   xmlns:rdf="http://www.w3.org/1999/02/22-rdf-syntax-ns#"
   xmlns:svg="http://www.w3.org/2000/svg"
   xmlns="http://www.w3.org/2000/svg"
   xmlns:sodipodi="http://sodipodi.sourceforge.net/DTD/sodipodi-0.dtd"
   xmlns:inkscape="http://www.inkscape.org/namespaces/inkscape"
   version="1.1"
   id="svg1377"
   xml:space="preserve"
   width="1000"
   height="666.66669"
   viewBox="0 0 1000 666.66669"
   sodipodi:docname="404.svg"
   inkscape:version="1.0.2-2 (e86c870879, 2021-01-15)"><metadata
     id="metadata1383"><rdf:RDF><cc:Work
         rdf:about=""><dc:format>image/svg+xml</dc:format><dc:type
           rdf:resource="http://purl.org/dc/dcmitype/StillImage" /><dc:title></dc:title></cc:Work></rdf:RDF></metadata><defs
     id="defs1381"><clipPath
       clipPathUnits="userSpaceOnUse"
       id="clipPath1395"><path
         d="M 0,500 H 750 V 0 H 0 Z"
         id="path1393" /></clipPath><clipPath
       clipPathUnits="userSpaceOnUse"
       id="clipPath1403"><path
         d="M 139.104,408.526 H 641.46 V 126.547 H 139.104 Z"
         id="path1401" /></clipPath><clipPath
       clipPathUnits="userSpaceOnUse"
       id="clipPath1407"><path
         d="m 204.161,126.547 h -51.484 c -13.776,14.31 -17.461,37.116 -9.232,55.196 7.844,17.235 24.685,28.62 34.889,44.571 21.777,34.041 11.251,84.755 40.844,112.273 14.792,13.756 36.063,17.735 56.198,19.343 20.136,1.609 40.947,1.564 59.568,9.39 22.963,9.652 40.273,30.382 63.926,38.193 26.559,8.771 58.329,-2.174 73.85,-25.442 9.712,-14.559 13.376,-32.851 24.861,-46.057 18.57,-21.354 51.288,-23.011 74.449,-39.272 15.886,-11.153 26.612,-29.367 28.658,-48.669 2.473,-23.304 -6.375,-49.776 7.599,-68.591 6.814,-9.174 17.861,-14.346 25.204,-23.104 7.316,-8.727 9.376,-16.678 7.074,-27.831 z"
         id="path1405" /></clipPath><linearGradient
       x1="0"
       y1="0"
       x2="1"
       y2="0"
       gradientUnits="userSpaceOnUse"
       gradientTransform="matrix(16.179775,244.31461,244.31461,-16.179775,387.91641,112.53667)"
       spreadMethod="pad"
       id="linearGradient1415"><stop
         style="stop-opacity:1;stop-color:#31d1d6"
         offset="0"
         id="stop1409" /><stop
         style="stop-opacity:1;stop-color:#31d1d6"
         offset="0.65297057"
         id="stop1411" /><stop
         style="stop-opacity:1;stop-color:#45a3fa"
         offset="1"
         id="stop1413" /></linearGradient><clipPath
       clipPathUnits="userSpaceOnUse"
       id="clipPath1437"><path
         d="M 152.261,408.526 H 654.618 V 126.547 H 152.261 Z"
         id="path1435" /></clipPath><clipPath
       clipPathUnits="userSpaceOnUse"
       id="clipPath1441"><path
         d="m 217.318,126.547 h -51.483 c -13.777,14.31 -17.461,37.116 -9.233,55.196 7.844,17.235 24.686,28.62 34.89,44.571 21.776,34.041 11.251,84.755 40.843,112.273 14.792,13.756 36.063,17.735 56.199,19.343 20.135,1.609 40.946,1.564 59.568,9.39 22.962,9.652 40.273,30.382 63.925,38.193 26.559,8.771 58.329,-2.174 73.85,-25.442 9.712,-14.559 13.376,-32.851 24.861,-46.057 18.571,-21.354 51.288,-23.011 74.449,-39.272 15.886,-11.153 26.612,-29.367 28.659,-48.669 2.472,-23.304 -6.375,-49.776 7.598,-68.591 6.814,-9.174 17.862,-14.346 25.204,-23.104 7.316,-8.727 9.376,-16.678 7.075,-27.831 z"
         id="path1439" /></clipPath><linearGradient
       x1="0"
       y1="0"
       x2="1"
       y2="0"
       gradientUnits="userSpaceOnUse"
       gradientTransform="matrix(16.179775,244.31461,244.31461,-16.179775,401.07373,112.53667)"
       spreadMethod="pad"
       id="linearGradient1449"><stop
         style="stop-opacity:1;stop-color:#31d1d6"
         offset="0"
         id="stop1443" /><stop
         style="stop-opacity:1;stop-color:#31d1d6"
         offset="0.65297057"
         id="stop1445" /><stop
         style="stop-opacity:1;stop-color:#45a3fa"
         offset="1"
         id="stop1447" /></linearGradient><clipPath
       clipPathUnits="userSpaceOnUse"
       id="clipPath1471"><path
         d="m 224.508,377.408 c -5.571,-2.99 -10.331,-7.47 -13.67,-12.84 v 0 c -5.371,-8.63 -7.411,-19.829 -15.621,-25.82 v 0 c -9.16,-6.69 -21.96,-4.03 -32.899,-7.02 v 0 c -12.511,-3.42 -22.451,-16.319 -20.551,-29.02 v 0 l 0.46,0.06 h 191.46 l 2.12,0.07 c -0.13,2.67 -0.82,5.22 -2.96,6.65 v 0 c -1.779,1.19 -4.07,1.21 -6.089,1.92 v 0 c -4.211,1.51 -6.701,5.83 -8.221,10.04 v 0 c -1.52,4.2 -2.5,8.74 -5.24,12.28 v 0 c -5.83,7.52 -17.07,7.67 -26.44,6.02 v 0 c -2.86,-0.51 -5.82,-1.11 -8.61,-0.34 v 0 c -3.03,0.831 -5.409,3.16 -7.299,5.66 v 0 c -8.481,11.19 -10.911,27.99 -23.59,34.01 v 0 c -2.857,1.353 -5.959,1.957 -9.1,1.957 v 0 c -4.733,0 -9.555,-1.373 -13.75,-3.627"
         id="path1469" /></clipPath><linearGradient
       x1="0"
       y1="0"
       x2="1"
       y2="0"
       gradientUnits="userSpaceOnUse"
       gradientTransform="matrix(0,42.606743,42.606743,0,238.67032,302.03372)"
       spreadMethod="pad"
       id="linearGradient1483"><stop
         style="stop-opacity:1;stop-color:#f9e6d9"
         offset="0"
         id="stop1477" /><stop
         style="stop-opacity:1;stop-color:#ffffff"
         offset="0.21702943"
         id="stop1479" /><stop
         style="stop-opacity:1;stop-color:#ffffff"
         offset="1"
         id="stop1481" /></linearGradient><clipPath
       clipPathUnits="userSpaceOnUse"
       id="clipPath1493"><path
         d="m 464.661,354.391 c -3.28,-1.52 -6.409,-3.42 -9.109,-5.82 v 0 c -6.821,-6.05 -10.601,-14.98 -11.88,-23.999 v 0 c -1.09,-7.601 -0.8,-16.05 -5.73,-21.941 v 0 c -2.57,-3.07 -6.22,-4.97 -9.65,-7.04 v 0 c -3.431,-2.06 -6.87,-4.54 -8.52,-8.19 v 0 c -1.27,-2.78 -1.051,-6.399 0.73,-8.74 v 0 h 223.27 c -1.31,7.37 -3.781,14.53 -7.281,21.141 v 0 c -2.099,3.959 -4.73,7.869 -8.659,10.019 v 0 c -4.875,2.663 -10.767,2.175 -16.578,1.686 v 0 c -6.67,-0.561 -13.235,-1.122 -18.033,3.084 v 0 c -3.5,3.07 -4.839,7.85 -6.599,12.17 v 0 c -4.211,10.37 -12.79,19.89 -23.891,21.33 v 0 c -9.439,1.211 -18.74,-3.639 -25.7,-10.129 v 0 c -4.899,-4.571 -10.449,-10.491 -16.98,-8.99 v 0 c -2.279,0.53 -4.249,1.939 -5.969,3.519 v 0 c -7.29,6.65 -11.391,16.62 -19.75,21.86 v 0 c -4.139,2.595 -8.914,3.717 -13.789,3.717 v 0 c -5.418,-10e-4 -10.959,-1.387 -15.882,-3.677"
         id="path1491" /></clipPath><linearGradient
       x1="0"
       y1="0"
       x2="1"
       y2="0"
       gradientUnits="userSpaceOnUse"
       gradientTransform="matrix(2.6966293,41.528088,41.528088,-2.6966293,530.77374,272.12473)"
       spreadMethod="pad"
       id="linearGradient1505"><stop
         style="stop-opacity:1;stop-color:#f9e6d9"
         offset="0"
         id="stop1499" /><stop
         style="stop-opacity:1;stop-color:#ffffff"
         offset="0.21702943"
         id="stop1501" /><stop
         style="stop-opacity:1;stop-color:#ffffff"
         offset="1"
         id="stop1503" /></linearGradient><clipPath
       clipPathUnits="userSpaceOnUse"
       id="clipPath1515"><path
         d="m 278.916,272.413 -60.658,-88.692 v -28.932 h 58.163 v -28.234 h 38.909 v 28.234 h 16.063 V 184.22 H 315.33 v 88.193 z M 268.54,208.264 c 2.859,4.455 5.421,9.243 7.683,14.366 v 0 h 1.097 c -0.134,-0.267 -0.317,-3.109 -0.549,-8.531 v 0 c -0.234,-5.421 -0.35,-9.726 -0.35,-12.919 v 0 -16.96 h -24.042 z"
         id="path1513" /></clipPath><linearGradient
       x1="0"
       y1="0"
       x2="1"
       y2="0"
       gradientUnits="userSpaceOnUse"
       gradientTransform="matrix(113.13414,0,0,-113.13414,218.25847,199.48439)"
       spreadMethod="pad"
       id="linearGradient1527"><stop
         style="stop-opacity:1;stop-color:#31d1d6"
         offset="0"
         id="stop1521" /><stop
         style="stop-opacity:1;stop-color:#31d1d6"
         offset="0.65297057"
         id="stop1523" /><stop
         style="stop-opacity:1;stop-color:#45a3fa"
         offset="1"
         id="stop1525" /></linearGradient><clipPath
       clipPathUnits="userSpaceOnUse"
       id="clipPath1537"><path
         d="M 268.29,272.404 207.633,183.712 V 154.78 h 58.163 v -28.233 h 38.909 v 28.233 h 16.062 v 29.431 h -16.062 v 88.193 z m -10.375,-64.149 c 2.858,4.455 5.42,9.244 7.682,14.366 v 0 h 1.096 c -0.133,-0.266 -0.315,-3.109 -0.548,-8.53 v 0 c -0.234,-5.422 -0.349,-9.727 -0.349,-12.919 v 0 -16.961 h -24.043 z"
         id="path1535" /></clipPath><linearGradient
       x1="0"
       y1="0"
       x2="1"
       y2="0"
       gradientUnits="userSpaceOnUse"
       gradientTransform="matrix(-1.0786517,55.011234,55.011234,1.0786517,265.23032,116.94922)"
       spreadMethod="pad"
       id="linearGradient1549"><stop
         style="stop-opacity:1;stop-color:#f9e6d9"
         offset="0"
         id="stop1543" /><stop
         style="stop-opacity:1;stop-color:#ffffff"
         offset="0.21702943"
         id="stop1545" /><stop
         style="stop-opacity:1;stop-color:#ffffff"
         offset="1"
         id="stop1547" /></linearGradient><clipPath
       clipPathUnits="userSpaceOnUse"
       id="clipPath1559"><path
         d="m 511.434,259.331 -42.71,-98.59 5.49,-28.41 57.11,11.051 3.25,-16.83 h 39.63 l -4.68,24.21 5.34,1.029 10.43,2.021 -5.59,28.899 -10.431,-2.02 -5.339,-1.03 -16.739,86.59 z m 0.1,-69.439 1.9,4.49 c 1.959,4.919 3.56,10.109 4.81,15.569 v 0 l 1.08,0.201 c -0.08,-0.281 0.279,-3.111 1.08,-8.48 v 0 c 0.8,-5.36 1.501,-9.61 2.11,-12.75 v 0 l 3.219,-16.65 -10.429,-2.021 -13.171,-2.541 z"
         id="path1557" /></clipPath><linearGradient
       x1="0"
       y1="0"
       x2="1"
       y2="0"
       gradientUnits="userSpaceOnUse"
       gradientTransform="matrix(111.07941,21.482841,21.482841,-111.07941,465.38773,177.96812)"
       spreadMethod="pad"
       id="linearGradient1571"><stop
         style="stop-opacity:1;stop-color:#31d1d6"
         offset="0"
         id="stop1565" /><stop
         style="stop-opacity:1;stop-color:#31d1d6"
         offset="0.65297057"
         id="stop1567" /><stop
         style="stop-opacity:1;stop-color:#45a3fa"
         offset="1"
         id="stop1569" /></linearGradient><clipPath
       clipPathUnits="userSpaceOnUse"
       id="clipPath1581"><path
         d="m 511.434,259.331 -10.43,-2.019 -42.711,-98.602 5.491,-28.398 10.43,2.019 46.68,9.02 2.86,-14.799 h 39.63 l -4.29,22.189 10.43,2.021 5.34,1.029 -5.591,28.89 -15.769,-3.049 -16.75,86.589 z m -8.43,-66.97 c 1.96,4.911 3.559,10.1 4.809,15.561 v 0 l 1.08,0.21 c -0.08,-0.291 0.281,-3.12 1.08,-8.48 v 0 c 0.571,-3.821 1.09,-7.081 1.561,-9.76 v 0 c 0.19,-1.09 0.38,-2.081 0.55,-2.991 v 0 l 3.22,-16.65 -23.61,-4.569 z"
         id="path1579" /></clipPath><linearGradient
       x1="0"
       y1="0"
       x2="1"
       y2="0"
       gradientUnits="userSpaceOnUse"
       gradientTransform="matrix(-1.0786517,55.011234,55.011234,1.0786517,517.23303,121.89045)"
       spreadMethod="pad"
       id="linearGradient1593"><stop
         style="stop-opacity:1;stop-color:#f9e6d9"
         offset="0"
         id="stop1587" /><stop
         style="stop-opacity:1;stop-color:#ffffff"
         offset="0.21702943"
         id="stop1589" /><stop
         style="stop-opacity:1;stop-color:#ffffff"
         offset="1"
         id="stop1591" /></linearGradient><clipPath
       clipPathUnits="userSpaceOnUse"
       id="clipPath1603"><path
         d="m 251.144,339.301 c 25.03,-4.46 46.833,-28.278 46.833,-28.278 v 0 l 15.092,-110.49 23.755,-0.002 -8.11,139.88 -53.73,1.46 z"
         id="path1601" /></clipPath><linearGradient
       x1="0"
       y1="0"
       x2="1"
       y2="0"
       gradientUnits="userSpaceOnUse"
       gradientTransform="matrix(32,8.2696629,8.2696629,-32,290.25583,268.95294)"
       spreadMethod="pad"
       id="linearGradient1615"><stop
         style="stop-opacity:1;stop-color:#31d1d6"
         offset="0"
         id="stop1609" /><stop
         style="stop-opacity:1;stop-color:#31d1d6"
         offset="0.65297057"
         id="stop1611" /><stop
         style="stop-opacity:1;stop-color:#45a3fa"
         offset="1"
         id="stop1613" /></linearGradient><clipPath
       clipPathUnits="userSpaceOnUse"
       id="clipPath1625"><path
         d="M 0,500 H 750 V 0 H 0 Z"
         id="path1623" /></clipPath><clipPath
       clipPathUnits="userSpaceOnUse"
       id="clipPath1641"><path
         d="m 251.134,339.301 -8.87,-0.96 c -10.96,-1.189 -18.07,-12.16 -14.67,-22.65 v 0 l 11.631,-56.299 20.177,7.229 -4.838,45.591 29.77,-1.111 13.643,-0.078 c 0,0 -21.803,23.818 -46.833,28.278 v 0 z"
         id="path1639" /></clipPath><linearGradient
       x1="0"
       y1="0"
       x2="1"
       y2="0"
       gradientUnits="userSpaceOnUse"
       gradientTransform="matrix(71.239159,0,0,-71.239159,226.73837,299.34637)"
       spreadMethod="pad"
       id="linearGradient1653"><stop
         style="stop-opacity:1;stop-color:#31d1d6"
         offset="0"
         id="stop1647" /><stop
         style="stop-opacity:1;stop-color:#31d1d6"
         offset="0.65297057"
         id="stop1649" /><stop
         style="stop-opacity:1;stop-color:#45a3fa"
         offset="1"
         id="stop1651" /></linearGradient><clipPath
       clipPathUnits="userSpaceOnUse"
       id="clipPath1663"><path
         d="m 181.62,441.07 c 0,-5.5 -1.957,-10.026 -4.481,-10.621 v 0 l 0.018,-0.072 38.896,4.932 4.39,0.559 c -0.108,1.506 -0.198,4.688 0.965,5.365 v 0 c 1.542,0.893 3.039,-0.569 5.194,-2.426 v 0 c 0.442,-0.387 0.883,-1.099 1.298,-1.992 v 0 l 1.614,0.207 v 1.326 6.374 1.055 l -52.267,5.896 c 2.47,-0.703 4.373,-5.175 4.373,-10.603"
         id="path1661" /></clipPath><linearGradient
       x1="0"
       y1="0"
       x2="1"
       y2="0"
       gradientUnits="userSpaceOnUse"
       gradientTransform="matrix(52.375374,0,0,-52.375374,177.13853,441.0253)"
       spreadMethod="pad"
       id="linearGradient1675"><stop
         style="stop-opacity:1;stop-color:#51adc6"
         offset="0"
         id="stop1669" /><stop
         style="stop-opacity:1;stop-color:#caeb8a"
         offset="0.20091254"
         id="stop1671" /><stop
         style="stop-opacity:1;stop-color:#caeb8a"
         offset="1"
         id="stop1673" /></linearGradient><clipPath
       clipPathUnits="userSpaceOnUse"
       id="clipPath1685"><path
         d="m 171.576,442.396 c 0.568,0.261 1.208,0.388 1.83,0.469 v 0 c 0.937,0.126 1.893,0.18 2.768,0.523 v 0 c 0.829,0.325 1.56,0.892 2.065,1.631 v 0 c 0.694,0.992 0.956,2.228 1.514,3.31 v 0 c 0.09,0.171 0.189,0.333 0.297,0.496 v 0 c -0.748,1.514 -1.721,2.542 -2.803,2.848 v 0 l -0.812,0.091 c -2.515,-0.136 -4.562,-4.175 -4.859,-9.368"
         id="path1683" /></clipPath><linearGradient
       x1="0"
       y1="0"
       x2="1"
       y2="0"
       gradientUnits="userSpaceOnUse"
       gradientTransform="matrix(-8.4752932,0,0,8.4752932,180.05078,447.07974)"
       spreadMethod="pad"
       id="linearGradient1697"><stop
         style="stop-opacity:1;stop-color:#8aebd6"
         offset="0"
         id="stop1691" /><stop
         style="stop-opacity:1;stop-color:#8aebd6"
         offset="0.79908746"
         id="stop1693" /><stop
         style="stop-opacity:1;stop-color:#5193fa"
         offset="1"
         id="stop1695" /></linearGradient><clipPath
       clipPathUnits="userSpaceOnUse"
       id="clipPath1707"><path
         d="m 179.753,448.329 c -0.558,-1.082 -0.82,-2.318 -1.514,-3.31 v 0 c -0.505,-0.739 -1.236,-1.306 -2.065,-1.631 v 0 c -0.875,-0.343 -1.831,-0.397 -2.768,-0.523 v 0 c -0.622,-0.081 -1.262,-0.208 -1.83,-0.469 v 0 c -0.037,-0.433 -0.046,-0.875 -0.046,-1.326 v 0 c 0,-2.172 0.307,-4.192 0.83,-5.878 v 0 c 0.315,0.495 0.739,0.91 1.262,1.181 v 0 c 1.027,0.514 2.245,0.378 3.372,0.631 v 0 c 1.218,0.28 2.326,1.037 3.02,2.074 v 0 c 0.596,0.883 0.902,1.956 1.543,2.813 v 0 c 0.018,0.018 0.026,0.036 0.045,0.054 v 0 c -0.1,2.705 -0.677,5.112 -1.552,6.88 v 0 c -0.108,-0.163 -0.207,-0.325 -0.297,-0.496"
         id="path1705" /></clipPath><linearGradient
       x1="0"
       y1="0"
       x2="1"
       y2="0"
       gradientUnits="userSpaceOnUse"
       gradientTransform="matrix(-10.071132,0,0,10.071132,181.60155,442.00809)"
       spreadMethod="pad"
       id="linearGradient1719"><stop
         style="stop-opacity:1;stop-color:#31d1d6"
         offset="0"
         id="stop1713" /><stop
         style="stop-opacity:1;stop-color:#31d1d6"
         offset="0.65297057"
         id="stop1715" /><stop
         style="stop-opacity:1;stop-color:#45a3fa"
         offset="1"
         id="stop1717" /></linearGradient><clipPath
       clipPathUnits="userSpaceOnUse"
       id="clipPath1729"><path
         d="m 181.557,441.891 c -0.641,-0.857 -0.947,-1.93 -1.543,-2.813 v 0 c -0.694,-1.037 -1.802,-1.794 -3.02,-2.074 v 0 c -1.127,-0.253 -2.345,-0.117 -3.372,-0.631 v 0 c -0.523,-0.271 -0.947,-0.686 -1.262,-1.181 v 0 c 0.902,-2.903 2.452,-4.815 4.21,-4.815 v 0 c 0.19,0 0.388,0.027 0.569,0.072 v 0 c 2.524,0.595 4.481,5.121 4.481,10.621 v 0 c 0,0.298 -0.01,0.586 -0.018,0.875 v 0 c -0.019,-0.018 -0.027,-0.036 -0.045,-0.054"
         id="path1727" /></clipPath><linearGradient
       x1="0"
       y1="0"
       x2="1"
       y2="0"
       gradientUnits="userSpaceOnUse"
       gradientTransform="matrix(-9.2597027,0,0,9.2597027,181.6196,436.16104)"
       spreadMethod="pad"
       id="linearGradient1741"><stop
         style="stop-opacity:1;stop-color:#8aebd6"
         offset="0"
         id="stop1735" /><stop
         style="stop-opacity:1;stop-color:#8aebd6"
         offset="0.79908746"
         id="stop1737" /><stop
         style="stop-opacity:1;stop-color:#5193fa"
         offset="1"
         id="stop1739" /></linearGradient><clipPath
       clipPathUnits="userSpaceOnUse"
       id="clipPath1751"><path
         d="M 0,500 H 750 V 0 H 0 Z"
         id="path1749" /></clipPath><clipPath
       clipPathUnits="userSpaceOnUse"
       id="clipPath1767"><path
         d="m 229.514,444.722 v -6.374 h 30.799 v 0.964 4.373 1.037 z"
         id="path1765" /></clipPath><linearGradient
       x1="0"
       y1="0"
       x2="1"
       y2="0"
       gradientUnits="userSpaceOnUse"
       gradientTransform="matrix(30.799498,0,0,-30.799498,229.5139,441.53473)"
       spreadMethod="pad"
       id="linearGradient1779"><stop
         style="stop-opacity:1;stop-color:#31d1d6"
         offset="0"
         id="stop1773" /><stop
         style="stop-opacity:1;stop-color:#31d1d6"
         offset="0.65297057"
         id="stop1775" /><stop
         style="stop-opacity:1;stop-color:#45a3fa"
         offset="1"
         id="stop1777" /></linearGradient><clipPath
       clipPathUnits="userSpaceOnUse"
       id="clipPath1789"><path
         d="m 221.408,441.233 c -1.163,-0.677 -1.073,-3.859 -0.965,-5.365 v 0 l -4.39,-0.559 c -0.334,-4.382 7.898,-13.01 7.898,-13.01 v 0 l 6.78,5.157 c 0,0 -1.245,5.96 -2.831,9.359 v 0 c -0.415,0.893 -0.856,1.605 -1.298,1.992 v 0 c -1.708,1.472 -3.003,2.695 -4.234,2.695 v 0 c -0.322,0 -0.64,-0.084 -0.96,-0.269"
         id="path1787" /></clipPath><linearGradient
       x1="0"
       y1="0"
       x2="1"
       y2="0"
       gradientUnits="userSpaceOnUse"
       gradientTransform="matrix(14.688348,0,0,-14.688348,216.04277,431.90024)"
       spreadMethod="pad"
       id="linearGradient1801"><stop
         style="stop-opacity:1;stop-color:#f7be86"
         offset="0"
         id="stop1795" /><stop
         style="stop-opacity:1;stop-color:#f7be86"
         offset="0.65297057"
         id="stop1797" /><stop
         style="stop-opacity:1;stop-color:#f79244"
         offset="1"
         id="stop1799" /></linearGradient><clipPath
       clipPathUnits="userSpaceOnUse"
       id="clipPath1811"><path
         d="M 0,500 H 750 V 0 H 0 Z"
         id="path1809" /></clipPath><clipPath
       clipPathUnits="userSpaceOnUse"
       id="clipPath1823"><path
         d="m 305.863,415.419 v 5.229 l -6.257,0.686 z"
         id="path1821" /></clipPath><linearGradient
       x1="0"
       y1="0"
       x2="1"
       y2="0"
       gradientUnits="userSpaceOnUse"
       gradientTransform="matrix(-0.4862694,-17.667789,-17.667789,0.4862694,302.79807,420.67322)"
       spreadMethod="pad"
       id="linearGradient1835"><stop
         style="stop-opacity:1;stop-color:#7b6ed6"
         offset="0"
         id="stop1829" /><stop
         style="stop-opacity:1;stop-color:#7b6ed6"
         offset="0.79908746"
         id="stop1831" /><stop
         style="stop-opacity:1;stop-color:#333ea8"
         offset="1"
         id="stop1833" /></linearGradient><clipPath
       clipPathUnits="userSpaceOnUse"
       id="clipPath1845"><path
         d="m 293.449,424.859 -6.871,-4.806 -3.084,-2.154 26.174,-35.506 c 0,0 23.912,5.797 29.34,6.816 v 0 c 5.427,1.009 5.264,7.249 6.157,12.884 v 0 c 0.829,5.23 -2.055,10.684 -6.771,11.352 v 0 c -0.351,0.054 -0.712,0.081 -1.091,0.072 v 0 c -5.346,-0.081 -19.123,-9.729 -19.123,-9.729 v 0 l -6.014,5.681 -6.303,5.95 -6.257,5.915 -1.749,1.65 -3.021,2.849 z"
         id="path1843" /></clipPath><linearGradient
       x1="0"
       y1="0"
       x2="1"
       y2="0"
       gradientUnits="userSpaceOnUse"
       gradientTransform="matrix(-1.2967185,-41.008724,-41.008724,1.2967185,314.7052,420.4407)"
       spreadMethod="pad"
       id="linearGradient1857"><stop
         style="stop-opacity:1;stop-color:#7b6ed6"
         offset="0"
         id="stop1851" /><stop
         style="stop-opacity:1;stop-color:#7b6ed6"
         offset="0.79908746"
         id="stop1853" /><stop
         style="stop-opacity:1;stop-color:#333ea8"
         offset="1"
         id="stop1855" /></linearGradient><clipPath
       clipPathUnits="userSpaceOnUse"
       id="clipPath1867"><path
         d="m 312.166,409.469 6.014,-5.681 c 0,0 13.777,9.648 19.123,9.729 v 0 c 0.379,0.009 0.74,-0.018 1.091,-0.072 v 0 l -15.634,6.112 z"
         id="path1865" /></clipPath><linearGradient
       x1="0"
       y1="0"
       x2="1"
       y2="0"
       gradientUnits="userSpaceOnUse"
       gradientTransform="matrix(-0.4862694,-17.667789,-17.667789,0.4862694,325.51642,420.04794)"
       spreadMethod="pad"
       id="linearGradient1879"><stop
         style="stop-opacity:1;stop-color:#7b6ed6"
         offset="0"
         id="stop1873" /><stop
         style="stop-opacity:1;stop-color:#7b6ed6"
         offset="0.79908746"
         id="stop1875" /><stop
         style="stop-opacity:1;stop-color:#333ea8"
         offset="1"
         id="stop1877" /></linearGradient><clipPath
       clipPathUnits="userSpaceOnUse"
       id="clipPath1889"><path
         d="m 223.951,422.298 -2.949,-2.245 22.127,-28.581 35.253,3.895 2.921,-23.586 -6.32,-29.908 c 16.22,-6.104 42.16,-3.146 50.815,-1.911 v 0 c 1.849,0.261 2.913,0.451 2.913,0.451 v 0 l 1.216,24.073 9.081,24.723 c -5.428,-1.019 -29.34,-6.816 -29.34,-6.816 v 0 l -26.174,35.506 3.084,2.154 c 0,0 -1.028,0.424 -2.219,1.281 v 0 l -32.719,-14.3 -20.909,20.422 z"
         id="path1887" /></clipPath><linearGradient
       x1="0"
       y1="0"
       x2="1"
       y2="0"
       gradientUnits="userSpaceOnUse"
       gradientTransform="matrix(118.00463,0,0,-118.00463,221.00256,382.80405)"
       spreadMethod="pad"
       id="linearGradient1901"><stop
         style="stop-opacity:1;stop-color:#7b6ed6"
         offset="0"
         id="stop1895" /><stop
         style="stop-opacity:1;stop-color:#7b6ed6"
         offset="0.79908746"
         id="stop1897" /><stop
         style="stop-opacity:1;stop-color:#333ea8"
         offset="1"
         id="stop1899" /></linearGradient><clipPath
       clipPathUnits="userSpaceOnUse"
       id="clipPath1911"><path
         d="m 276.037,443.685 c -1.64,-0.658 -3.037,-1.406 -3.669,-2.001 v 0 c -0.496,-0.461 -0.279,-1.299 0.334,-2.372 v 0 c 1.911,-3.363 7.753,-8.998 8.051,-12.46 v 0 c 0.225,-2.579 2.056,-4.409 3.606,-5.518 v 0 c 1.191,-0.857 2.219,-1.281 2.219,-1.281 v 0 l 6.871,4.806 c 0,0 -4.32,8.647 -6.808,14.453 v 0 c -0.821,1.893 -1.434,3.49 -1.641,4.373 v 0 c -0.018,0.063 -0.036,0.127 -0.046,0.181 v 0 c -0.187,0.954 -1.171,1.325 -2.52,1.325 v 0 c -1.821,0 -4.309,-0.677 -6.397,-1.506"
         id="path1909" /></clipPath><linearGradient
       x1="0"
       y1="0"
       x2="1"
       y2="0"
       gradientUnits="userSpaceOnUse"
       gradientTransform="matrix(21.354055,0,0,-21.354055,272.09409,432.62244)"
       spreadMethod="pad"
       id="linearGradient1923"><stop
         style="stop-opacity:1;stop-color:#f7be86"
         offset="0"
         id="stop1917" /><stop
         style="stop-opacity:1;stop-color:#f7be86"
         offset="0.65297057"
         id="stop1919" /><stop
         style="stop-opacity:1;stop-color:#f79244"
         offset="1"
         id="stop1921" /></linearGradient><clipPath
       clipPathUnits="userSpaceOnUse"
       id="clipPath1933"><path
         d="M 0,500 H 750 V 0 H 0 Z"
         id="path1931" /></clipPath><clipPath
       clipPathUnits="userSpaceOnUse"
       id="clipPath1941"><path
         d="m 283.494,417.899 h 55.513 v -53.413 h -55.513 z"
         id="path1939" /></clipPath><clipPath
       clipPathUnits="userSpaceOnUse"
       id="clipPath1945"><path
         d="m 329.928,364.486 c -40.048,8.495 -46.434,53.412 -46.434,53.412 l 26.175,-35.531 29.338,6.842 z"
         id="path1943" /></clipPath><linearGradient
       x1="0"
       y1="0"
       x2="1"
       y2="0"
       gradientUnits="userSpaceOnUse"
       gradientTransform="matrix(55.513027,0,0,-55.513027,283.49417,391.19254)"
       spreadMethod="pad"
       id="linearGradient1953"><stop
         style="stop-opacity:1;stop-color:#3c0887"
         offset="0"
         id="stop1947" /><stop
         style="stop-opacity:1;stop-color:#3c0887"
         offset="0.65297057"
         id="stop1949" /><stop
         style="stop-opacity:1;stop-color:#822a8a"
         offset="1"
         id="stop1951" /></linearGradient><clipPath
       clipPathUnits="userSpaceOnUse"
       id="clipPath1975"><path
         d="m 296.919,445.046 -0.054,-0.324 c -0.162,-0.838 -0.225,-2.128 -0.225,-3.67 v 0 c 0,-6.681 1.217,-18.068 1.217,-18.068 v 0 l 1.749,-1.65 6.257,-0.686 10.45,0.686 -4.147,-11.865 10.594,10.088 -0.857,13.733 c 0,0 3.471,3.714 2.678,6.806 v 0 c -0.343,1.353 -1.199,1.525 -2.046,1.29 v 0 c -1.1,-0.298 -2.21,-1.29 -2.21,-1.29 v 0 c 0,0 -0.604,-7.771 -2.551,-7.537 v 0 c -1.947,0.244 -3.373,14.11 -3.373,14.11 v 0 c 0,0 -10.161,-2.857 -17.482,-1.623"
         id="path1973" /></clipPath><linearGradient
       x1="0"
       y1="0"
       x2="1"
       y2="0"
       gradientUnits="userSpaceOnUse"
       gradientTransform="matrix(28.05924,0,0,-28.05924,296.63986,428.06897)"
       spreadMethod="pad"
       id="linearGradient1987"><stop
         style="stop-opacity:1;stop-color:#f7be86"
         offset="0"
         id="stop1981" /><stop
         style="stop-opacity:1;stop-color:#f7be86"
         offset="0.65297057"
         id="stop1983" /><stop
         style="stop-opacity:1;stop-color:#f79244"
         offset="1"
         id="stop1985" /></linearGradient><clipPath
       clipPathUnits="userSpaceOnUse"
       id="clipPath1997"><path
         d="M 0,500 H 750 V 0 H 0 Z"
         id="path1995" /></clipPath><clipPath
       clipPathUnits="userSpaceOnUse"
       id="clipPath2037"><path
         d="M 203.391,126.547 H 611.753 V 50.826 H 203.391 Z"
         id="path2035" /></clipPath><clipPath
       clipPathUnits="userSpaceOnUse"
       id="clipPath2041"><path
         d="M 611.753,126.547 H 210.494 c 0,0 -21.59,-14.333 10.508,-16.761 32.099,-2.427 82.165,-4.719 80.93,-15.64 -1.235,-10.921 -30.224,-8.764 -30.224,-28.044 0,-19.282 133.701,-14.832 133.701,-14.832 0,0 75.529,-0.989 86.285,11.775 10.755,12.764 -30.449,24.449 -22.97,29.483 7.478,5.034 61.77,-10.067 69.86,2.158 8.09,12.224 -1.618,19.955 13.304,21.573 14.921,1.617 57.348,-4.233 59.865,10.288"
         id="path2039" /></clipPath><linearGradient
       x1="0"
       y1="0"
       x2="1"
       y2="0"
       gradientUnits="userSpaceOnUse"
       gradientTransform="matrix(1.0786518,74.426964,74.426964,-1.0786518,406.50137,48.111118)"
       spreadMethod="pad"
       id="linearGradient2049"><stop
         style="stop-opacity:1;stop-color:#8aebd6"
         offset="0"
         id="stop2043" /><stop
         style="stop-opacity:1;stop-color:#8aebd6"
         offset="0.79908746"
         id="stop2045" /><stop
         style="stop-opacity:1;stop-color:#5193fa"
         offset="1"
         id="stop2047" /></linearGradient><clipPath
       clipPathUnits="userSpaceOnUse"
       id="clipPath2071"><path
         d="m 551.079,101.157 c 0,-4.765 13.582,-8.629 30.337,-8.629 v 0 c 16.755,0 30.337,3.864 30.337,8.629 v 0 c 0,4.766 -13.582,8.629 -30.337,8.629 v 0 c -16.755,0 -30.337,-3.863 -30.337,-8.629"
         id="path2069" /></clipPath><linearGradient
       x1="0"
       y1="0"
       x2="1"
       y2="0"
       gradientUnits="userSpaceOnUse"
       gradientTransform="matrix(0,65.528091,65.528091,0,581.41571,52.887642)"
       spreadMethod="pad"
       id="linearGradient2083"><stop
         style="stop-opacity:1;stop-color:#8aebd6"
         offset="0"
         id="stop2077" /><stop
         style="stop-opacity:1;stop-color:#8aebd6"
         offset="0.79908746"
         id="stop2079" /><stop
         style="stop-opacity:1;stop-color:#5193fa"
         offset="1"
         id="stop2081" /></linearGradient><clipPath
       clipPathUnits="userSpaceOnUse"
       id="clipPath2093"><path
         d="m 231.888,93.696 c 0,-3.624 11.872,-6.562 26.516,-6.562 v 0 c 14.645,0 26.517,2.938 26.517,6.562 v 0 c 0,3.625 -11.872,6.563 -26.517,6.563 v 0 c -14.644,0 -26.516,-2.938 -26.516,-6.563"
         id="path2091" /></clipPath><linearGradient
       x1="0"
       y1="0"
       x2="1"
       y2="0"
       gradientUnits="userSpaceOnUse"
       gradientTransform="matrix(0,65.528091,65.528091,0,258.40448,52.887642)"
       spreadMethod="pad"
       id="linearGradient2105"><stop
         style="stop-opacity:1;stop-color:#8aebd6"
         offset="0"
         id="stop2099" /><stop
         style="stop-opacity:1;stop-color:#8aebd6"
         offset="0.79908746"
         id="stop2101" /><stop
         style="stop-opacity:1;stop-color:#5193fa"
         offset="1"
         id="stop2103" /></linearGradient><clipPath
       clipPathUnits="userSpaceOnUse"
       id="clipPath2115"><path
         d="M 0,500 H 750 V 0 H 0 Z"
         id="path2113" /></clipPath><clipPath
       clipPathUnits="userSpaceOnUse"
       id="clipPath2127"><path
         d="m 372.924,220.271 c -10.9,-10.119 -18.941,-27.889 -24.141,-53.31 v 0 c -3.179,-15.569 -4.069,-29.039 -2.659,-40.409 v 0 h 37.16 c -0.471,6.639 0.84,17.5 3.92,32.559 v 0 c 3.33,16.29 6.63,27.291 9.899,33.01 v 0 c 1.901,3.32 4.051,5.511 6.451,6.57 v 0 c 1.73,0.77 3.601,0.951 5.59,0.54 v 0 c 4.761,-0.98 7.499,-4.849 8.22,-11.61 v 0 c 0.72,-6.77 -0.54,-18.069 -3.77,-33.899 v 0 c -2.43,-11.87 -4.871,-20.92 -7.31,-27.17 v 0 h 40.74 c 1.89,5.85 3.55,12.29 4.98,19.319 v 0 c 0.95,4.65 1.7,9.111 2.24,13.38 v 0 c 2.33,18.2 0.989,33.02 -4.011,44.459 v 0 c -6.179,14.131 -17.769,22.932 -34.769,26.401 v 0 c -1.85,0.38 -3.66,0.68 -5.429,0.901 v 0 c -2.6,0.329 -5.12,0.494 -7.562,0.494 v 0 c -11.647,0 -21.497,-3.745 -29.549,-11.235"
         id="path2125" /></clipPath><linearGradient
       x1="0"
       y1="0"
       x2="1"
       y2="0"
       gradientUnits="userSpaceOnUse"
       gradientTransform="matrix(103.21886,-21.095962,-21.095962,-103.21886,352.29803,184.15543)"
       spreadMethod="pad"
       id="linearGradient2139"><stop
         style="stop-opacity:1;stop-color:#31d1d6"
         offset="0"
         id="stop2133" /><stop
         style="stop-opacity:1;stop-color:#31d1d6"
         offset="0.65297057"
         id="stop2135" /><stop
         style="stop-opacity:1;stop-color:#45a3fa"
         offset="1"
         id="stop2137" /></linearGradient><clipPath
       clipPathUnits="userSpaceOnUse"
       id="clipPath2149"><path
         d="m 362.504,222.392 c -10.89,-10.131 -18.94,-27.901 -24.13,-53.311 v 0 c -1.06,-5.17 -1.86,-10.12 -2.41,-14.83 v 0 c -1.21,-10.35 -1.2,-19.59 0.04,-27.699 v 0 h 37.11 c -0.05,0.239 -0.08,0.479 -0.11,0.73 v 0 c -0.78,6.469 0.48,17.789 3.78,33.949 v 0 c 3.33,16.29 6.63,27.29 9.91,33.001 v 0 c 3.27,5.719 7.279,8.089 12.039,7.11 v 0 c 1.951,-0.401 3.561,-1.28 4.821,-2.651 v 0 c 1.85,-1.98 2.97,-4.96 3.4,-8.949 v 0 c 0.72,-6.77 -0.54,-18.07 -3.77,-33.9 v 0 c -2.72,-13.28 -5.451,-23.04 -8.19,-29.29 v 0 h 40.93 c 2.16,6.4 4.05,13.54 5.67,21.43 v 0 c 4.99,24.44 4.4,43.719 -1.769,57.849 v 0 c -5.552,12.691 -15.481,21.09 -29.79,25.181 v 0 c -1.611,0.46 -3.271,0.869 -4.991,1.219 v 0 c -4.549,0.931 -8.877,1.396 -12.981,1.396 v 0 c -11.647,0 -21.499,-3.745 -29.559,-11.235"
         id="path2147" /></clipPath><linearGradient
       x1="0"
       y1="0"
       x2="1"
       y2="0"
       gradientUnits="userSpaceOnUse"
       gradientTransform="matrix(-1.0786517,55.011234,55.011234,1.0786517,390.77307,119.41084)"
       spreadMethod="pad"
       id="linearGradient2161"><stop
         style="stop-opacity:1;stop-color:#f9e6d9"
         offset="0"
         id="stop2155" /><stop
         style="stop-opacity:1;stop-color:#ffffff"
         offset="0.21702943"
         id="stop2157" /><stop
         style="stop-opacity:1;stop-color:#ffffff"
         offset="1"
         id="stop2159" /></linearGradient><clipPath
       clipPathUnits="userSpaceOnUse"
       id="clipPath2171"><path
         d="M 0,500 H 750 V 0 H 0 Z"
         id="path2169" /></clipPath><clipPath
       clipPathUnits="userSpaceOnUse"
       id="clipPath2183"><path
         d="m 441.81,280.6 c 2.87,-1.19 5.09,-3.98 5.38,-7.1 v 0 c 0.421,-4.469 -2.67,-8.91 -1.51,-13.25 v 0 c 0.8,-2.99 3.5,-5.141 6.37,-6.3 v 0 c 3.21,-1.28 7.26,-2.01 8.601,-5.19 v 0 c 0.599,-1.41 0.488,-3.01 0.17,-4.51 v 0 c -0.801,-3.74 -2.852,-7.33 -2.411,-11.13 v 0 c 0.34,-2.889 2.109,-5.441 4.2,-7.469 v 0 c 2.091,-2.031 4.53,-3.661 6.72,-5.591 v 0 c 1.29,-1.149 2.55,-2.51 2.88,-4.22 v 0 c 0.47,-2.51 -1.19,-4.87 -2.76,-6.88 v 0 l 0.27,-0.47 c 3.971,2.349 8.02,4.769 10.99,8.3 v 0 c 2.97,3.53 4.709,8.44 3.309,12.84 v 0 c -1.019,3.179 -3.568,5.82 -4.069,9.13 v 0 c -0.78,5.18 3.689,9.851 3.751,15.09 v 0 c 0.059,4.67 -3.331,8.6 -6.701,11.83 v 0 c -1.63,1.57 -3.4,3.25 -3.81,5.47 v 0 c -0.261,1.45 0.1,2.93 0.52,4.35 v 0 c 1.06,3.52 2.55,7.02 2.53,10.7 v 0 c -0.05,5.809 -3.87,10.9 -8.299,14.74 v 0 z"
         id="path2181" /></clipPath><linearGradient
       x1="0"
       y1="0"
       x2="1"
       y2="0"
       gradientUnits="userSpaceOnUse"
       gradientTransform="matrix(42.701817,0,0,-42.701817,441.81,254.715)"
       spreadMethod="pad"
       id="linearGradient2195"><stop
         style="stop-opacity:1;stop-color:#7b6ed6"
         offset="0"
         id="stop2189" /><stop
         style="stop-opacity:1;stop-color:#7b6ed6"
         offset="0.79908746"
         id="stop2191" /><stop
         style="stop-opacity:1;stop-color:#333ea8"
         offset="1"
         id="stop2193" /></linearGradient><clipPath
       clipPathUnits="userSpaceOnUse"
       id="clipPath2205"><path
         d="M 0,500 H 750 V 0 H 0 Z"
         id="path2203" /></clipPath><filter
       inkscape:collect="always"
       style="color-interpolation-filters:sRGB"
       id="filter3116"
       x="-0.0001899034"
       width="1.0003798"
       y="-8.77129e-05"
       height="1.0001754"><feGaussianBlur
         inkscape:collect="always"
         stdDeviation="0.003378774"
         id="feGaussianBlur3118" /></filter></defs><sodipodi:namedview
     pagecolor="#ffffff"
     bordercolor="#666666"
     borderopacity="1"
     objecttolerance="10"
     gridtolerance="10"
     guidetolerance="10"
     inkscape:pageopacity="0"
     inkscape:pageshadow="2"
     inkscape:window-width="1366"
     inkscape:window-height="705"
     id="namedview1379"
     showgrid="false"
     inkscape:zoom="0.80699998"
     inkscape:cx="478.29375"
     inkscape:cy="282.55698"
     inkscape:window-x="-8"
     inkscape:window-y="-8"
     inkscape:window-maximized="1"
     inkscape:current-layer="g2031" /><g
     id="g1385"
     inkscape:groupmode="layer"
     inkscape:label="2634443"
     transform="matrix(1.3333333,0,0,-1.3333333,0,666.66667)"><path
       d="M 0,0 H 750 V 500 H 0 Z"
       style="fill:#e9fdff;fill-opacity:1;fill-rule:nonzero;stroke:none"
       id="path1387" /><g
       id="g1389"><g
         id="g1391"
         clip-path="url(#clipPath1395)"><g
           id="g1397"><g
             id="g1399" /><g
             id="g1429"><g
               clip-path="url(#clipPath1403)"
               opacity="0.369995"
               id="g1427"><g
                 id="g1425"><g
                   clip-path="url(#clipPath1407)"
                   id="g1423"><g
                     id="g1421"><g
                       id="g1419"><path
                         d="m 204.161,126.547 h -51.484 c -13.776,14.31 -17.461,37.116 -9.232,55.196 7.844,17.235 24.685,28.62 34.889,44.571 21.777,34.041 11.251,84.755 40.844,112.273 14.792,13.756 36.063,17.735 56.198,19.343 20.136,1.609 40.947,1.564 59.568,9.39 22.963,9.652 40.273,30.382 63.926,38.193 26.559,8.771 58.329,-2.174 73.85,-25.442 9.712,-14.559 13.376,-32.851 24.861,-46.057 18.57,-21.354 51.288,-23.011 74.449,-39.272 15.886,-11.153 26.612,-29.367 28.658,-48.669 2.473,-23.304 -6.375,-49.776 7.599,-68.591 6.814,-9.174 17.861,-14.346 25.204,-23.104 7.316,-8.727 9.376,-16.678 7.074,-27.831 z"
                         style="fill:url(#linearGradient1415);stroke:none"
                         id="path1417" /></g></g></g></g></g></g></g><g
           id="g1431"><g
             id="g1433" /><g
             id="g1463"><g
               clip-path="url(#clipPath1437)"
               opacity="0.369995"
               id="g1461"><g
                 id="g1459"><g
                   clip-path="url(#clipPath1441)"
                   id="g1457"><g
                     id="g1455"><g
                       id="g1453"><path
                         d="m 217.318,126.547 h -51.483 c -13.777,14.31 -17.461,37.116 -9.233,55.196 7.844,17.235 24.686,28.62 34.89,44.571 21.776,34.041 11.251,84.755 40.843,112.273 14.792,13.756 36.063,17.735 56.199,19.343 20.135,1.609 40.946,1.564 59.568,9.39 22.962,9.652 40.273,30.382 63.925,38.193 26.559,8.771 58.329,-2.174 73.85,-25.442 9.712,-14.559 13.376,-32.851 24.861,-46.057 18.571,-21.354 51.288,-23.011 74.449,-39.272 15.886,-11.153 26.612,-29.367 28.659,-48.669 2.472,-23.304 -6.375,-49.776 7.598,-68.591 6.814,-9.174 17.862,-14.346 25.204,-23.104 7.316,-8.727 9.376,-16.678 7.075,-27.831 z"
                         style="fill:url(#linearGradient1449);stroke:none"
                         id="path1451" /></g></g></g></g></g></g></g></g></g><g
       id="g1465"><g
         id="g1467"
         clip-path="url(#clipPath1471)"><g
           id="g1473"><g
             id="g1475"><path
               d="m 224.508,377.408 c -5.571,-2.99 -10.331,-7.47 -13.67,-12.84 v 0 c -5.371,-8.63 -7.411,-19.829 -15.621,-25.82 v 0 c -9.16,-6.69 -21.96,-4.03 -32.899,-7.02 v 0 c -12.511,-3.42 -22.451,-16.319 -20.551,-29.02 v 0 l 0.46,0.06 h 191.46 l 2.12,0.07 c -0.13,2.67 -0.82,5.22 -2.96,6.65 v 0 c -1.779,1.19 -4.07,1.21 -6.089,1.92 v 0 c -4.211,1.51 -6.701,5.83 -8.221,10.04 v 0 c -1.52,4.2 -2.5,8.74 -5.24,12.28 v 0 c -5.83,7.52 -17.07,7.67 -26.44,6.02 v 0 c -2.86,-0.51 -5.82,-1.11 -8.61,-0.34 v 0 c -3.03,0.831 -5.409,3.16 -7.299,5.66 v 0 c -8.481,11.19 -10.911,27.99 -23.59,34.01 v 0 c -2.857,1.353 -5.959,1.957 -9.1,1.957 v 0 c -4.733,0 -9.555,-1.373 -13.75,-3.627"
               style="fill:url(#linearGradient1483);stroke:none"
               id="path1485" /></g></g></g></g><g
       id="g1487"><g
         id="g1489"
         clip-path="url(#clipPath1493)"><g
           id="g1495"><g
             id="g1497"><path
               d="m 464.661,354.391 c -3.28,-1.52 -6.409,-3.42 -9.109,-5.82 v 0 c -6.821,-6.05 -10.601,-14.98 -11.88,-23.999 v 0 c -1.09,-7.601 -0.8,-16.05 -5.73,-21.941 v 0 c -2.57,-3.07 -6.22,-4.97 -9.65,-7.04 v 0 c -3.431,-2.06 -6.87,-4.54 -8.52,-8.19 v 0 c -1.27,-2.78 -1.051,-6.399 0.73,-8.74 v 0 h 223.27 c -1.31,7.37 -3.781,14.53 -7.281,21.141 v 0 c -2.099,3.959 -4.73,7.869 -8.659,10.019 v 0 c -4.875,2.663 -10.767,2.175 -16.578,1.686 v 0 c -6.67,-0.561 -13.235,-1.122 -18.033,3.084 v 0 c -3.5,3.07 -4.839,7.85 -6.599,12.17 v 0 c -4.211,10.37 -12.79,19.89 -23.891,21.33 v 0 c -9.439,1.211 -18.74,-3.639 -25.7,-10.129 v 0 c -4.899,-4.571 -10.449,-10.491 -16.98,-8.99 v 0 c -2.279,0.53 -4.249,1.939 -5.969,3.519 v 0 c -7.29,6.65 -11.391,16.62 -19.75,21.86 v 0 c -4.139,2.595 -8.914,3.717 -13.789,3.717 v 0 c -5.418,-10e-4 -10.959,-1.387 -15.882,-3.677"
               style="fill:url(#linearGradient1505);stroke:none"
               id="path1507" /></g></g></g></g><g
       id="g1509"><g
         id="g1511"
         clip-path="url(#clipPath1515)"><g
           id="g1517"><g
             id="g1519"><path
               d="m 278.916,272.413 -60.658,-88.692 v -28.932 h 58.163 v -28.234 h 38.909 v 28.234 h 16.063 V 184.22 H 315.33 v 88.193 z M 268.54,208.264 c 2.859,4.455 5.421,9.243 7.683,14.366 v 0 h 1.097 c -0.134,-0.267 -0.317,-3.109 -0.549,-8.531 v 0 c -0.234,-5.421 -0.35,-9.726 -0.35,-12.919 v 0 -16.96 h -24.042 z"
               style="fill:url(#linearGradient1527);stroke:none"
               id="path1529" /></g></g></g></g><g
       id="g1531"><g
         id="g1533"
         clip-path="url(#clipPath1537)"><g
           id="g1539"><g
             id="g1541"><path
               d="M 268.29,272.404 207.633,183.712 V 154.78 h 58.163 v -28.233 h 38.909 v 28.233 h 16.062 v 29.431 h -16.062 v 88.193 z m -10.375,-64.149 c 2.858,4.455 5.42,9.244 7.682,14.366 v 0 h 1.096 c -0.133,-0.266 -0.315,-3.109 -0.548,-8.53 v 0 c -0.234,-5.422 -0.349,-9.727 -0.349,-12.919 v 0 -16.961 h -24.043 z"
               style="fill:url(#linearGradient1549);stroke:none"
               id="path1551" /></g></g></g></g><g
       id="g1553"><g
         id="g1555"
         clip-path="url(#clipPath1559)"><g
           id="g1561"><g
             id="g1563"><path
               d="m 511.434,259.331 -42.71,-98.59 5.49,-28.41 57.11,11.051 3.25,-16.83 h 39.63 l -4.68,24.21 5.34,1.029 10.43,2.021 -5.59,28.899 -10.431,-2.02 -5.339,-1.03 -16.739,86.59 z m 0.1,-69.439 1.9,4.49 c 1.959,4.919 3.56,10.109 4.81,15.569 v 0 l 1.08,0.201 c -0.08,-0.281 0.279,-3.111 1.08,-8.48 v 0 c 0.8,-5.36 1.501,-9.61 2.11,-12.75 v 0 l 3.219,-16.65 -10.429,-2.021 -13.171,-2.541 z"
               style="fill:url(#linearGradient1571);stroke:none"
               id="path1573" /></g></g></g></g><g
       id="g1575"><g
         id="g1577"
         clip-path="url(#clipPath1581)"><g
           id="g1583"><g
             id="g1585"><path
               d="m 511.434,259.331 -10.43,-2.019 -42.711,-98.602 5.491,-28.398 10.43,2.019 46.68,9.02 2.86,-14.799 h 39.63 l -4.29,22.189 10.43,2.021 5.34,1.029 -5.591,28.89 -15.769,-3.049 -16.75,86.589 z m -8.43,-66.97 c 1.96,4.911 3.559,10.1 4.809,15.561 v 0 l 1.08,0.21 c -0.08,-0.291 0.281,-3.12 1.08,-8.48 v 0 c 0.571,-3.821 1.09,-7.081 1.561,-9.76 v 0 c 0.19,-1.09 0.38,-2.081 0.55,-2.991 v 0 l 3.22,-16.65 -23.61,-4.569 z"
               style="fill:url(#linearGradient1593);stroke:none"
               id="path1595" /></g></g></g></g><g
       id="g1597"><g
         id="g1599"
         clip-path="url(#clipPath1603)"><g
           id="g1605"><g
             id="g1607"><path
               d="m 251.144,339.301 c 25.03,-4.46 46.833,-28.278 46.833,-28.278 v 0 l 15.092,-110.49 23.755,-0.002 -8.11,139.88 -53.73,1.46 z"
               style="fill:url(#linearGradient1615);stroke:none"
               id="path1617" /></g></g></g></g><g
       id="g1619"><g
         id="g1621"
         clip-path="url(#clipPath1625)"><g
           id="g1627"
           transform="translate(243.0708,261.272)"><path
             d="M 0,0 C 0,0 -13.498,-19.755 -7.505,-36.717 L 17.606,0 14.345,4.38 Z"
             style="fill:#111023;fill-opacity:1;fill-rule:nonzero;stroke:none"
             id="path1629" /></g><g
           id="g1631"
           transform="translate(313.0693,200.5322)"><path
             d="m 0,0 -0.809,-5.102 c 0,0 -7.156,-1.001 -7.556,-11.219 H 10.247 L 20.359,-6.449 21.303,0 Z"
             style="fill:#111023;fill-opacity:1;fill-rule:nonzero;stroke:none"
             id="path1633" /></g></g></g><g
       id="g1635"><g
         id="g1637"
         clip-path="url(#clipPath1641)"><g
           id="g1643"><g
             id="g1645"><path
               d="m 251.134,339.301 -8.87,-0.96 c -10.96,-1.189 -18.07,-12.16 -14.67,-22.65 v 0 l 11.631,-56.299 20.177,7.229 -4.838,45.591 29.77,-1.111 13.643,-0.078 c 0,0 -21.803,23.818 -46.833,28.278 v 0 z"
               style="fill:url(#linearGradient1653);stroke:none"
               id="path1655" /></g></g></g></g><g
       id="g1657"><g
         id="g1659"
         clip-path="url(#clipPath1663)"><g
           id="g1665"><g
             id="g1667"><path
               d="m 181.62,441.07 c 0,-5.5 -1.957,-10.026 -4.481,-10.621 v 0 l 0.018,-0.072 38.896,4.932 4.39,0.559 c -0.108,1.506 -0.198,4.688 0.965,5.365 v 0 c 1.542,0.893 3.039,-0.569 5.194,-2.426 v 0 c 0.442,-0.387 0.883,-1.099 1.298,-1.992 v 0 l 1.614,0.207 v 1.326 6.374 1.055 l -52.267,5.896 c 2.47,-0.703 4.373,-5.175 4.373,-10.603"
               style="fill:url(#linearGradient1675);stroke:none"
               id="path1677" /></g></g></g></g><g
       id="g1679"><g
         id="g1681"
         clip-path="url(#clipPath1685)"><g
           id="g1687"><g
             id="g1689"><path
               d="m 171.576,442.396 c 0.568,0.261 1.208,0.388 1.83,0.469 v 0 c 0.937,0.126 1.893,0.18 2.768,0.523 v 0 c 0.829,0.325 1.56,0.892 2.065,1.631 v 0 c 0.694,0.992 0.956,2.228 1.514,3.31 v 0 c 0.09,0.171 0.189,0.333 0.297,0.496 v 0 c -0.748,1.514 -1.721,2.542 -2.803,2.848 v 0 l -0.812,0.091 c -2.515,-0.136 -4.562,-4.175 -4.859,-9.368"
               style="fill:url(#linearGradient1697);stroke:none"
               id="path1699" /></g></g></g></g><g
       id="g1701"><g
         id="g1703"
         clip-path="url(#clipPath1707)"><g
           id="g1709"><g
             id="g1711"><path
               d="m 179.753,448.329 c -0.558,-1.082 -0.82,-2.318 -1.514,-3.31 v 0 c -0.505,-0.739 -1.236,-1.306 -2.065,-1.631 v 0 c -0.875,-0.343 -1.831,-0.397 -2.768,-0.523 v 0 c -0.622,-0.081 -1.262,-0.208 -1.83,-0.469 v 0 c -0.037,-0.433 -0.046,-0.875 -0.046,-1.326 v 0 c 0,-2.172 0.307,-4.192 0.83,-5.878 v 0 c 0.315,0.495 0.739,0.91 1.262,1.181 v 0 c 1.027,0.514 2.245,0.378 3.372,0.631 v 0 c 1.218,0.28 2.326,1.037 3.02,2.074 v 0 c 0.596,0.883 0.902,1.956 1.543,2.813 v 0 c 0.018,0.018 0.026,0.036 0.045,0.054 v 0 c -0.1,2.705 -0.677,5.112 -1.552,6.88 v 0 c -0.108,-0.163 -0.207,-0.325 -0.297,-0.496"
               style="fill:url(#linearGradient1719);stroke:none"
               id="path1721" /></g></g></g></g><g
       id="g1723"><g
         id="g1725"
         clip-path="url(#clipPath1729)"><g
           id="g1731"><g
             id="g1733"><path
               d="m 181.557,441.891 c -0.641,-0.857 -0.947,-1.93 -1.543,-2.813 v 0 c -0.694,-1.037 -1.802,-1.794 -3.02,-2.074 v 0 c -1.127,-0.253 -2.345,-0.117 -3.372,-0.631 v 0 c -0.523,-0.271 -0.947,-0.686 -1.262,-1.181 v 0 c 0.902,-2.903 2.452,-4.815 4.21,-4.815 v 0 c 0.19,0 0.388,0.027 0.569,0.072 v 0 c 2.524,0.595 4.481,5.121 4.481,10.621 v 0 c 0,0.298 -0.01,0.586 -0.018,0.875 v 0 c -0.019,-0.018 -0.027,-0.036 -0.045,-0.054"
               style="fill:url(#linearGradient1741);stroke:none"
               id="path1743" /></g></g></g></g><g
       id="g1745"><g
         id="g1747"
         clip-path="url(#clipPath1751)"><g
           id="g1753"
           transform="translate(260.3135,443.6851)"><path
             d="m 0,0 h 15.724 c -1.641,-0.658 -3.038,-1.406 -3.669,-2.001 -0.496,-0.46 -0.28,-1.299 0.333,-2.372 L 0,-4.373 Z"
             style="fill:#111023;fill-opacity:1;fill-rule:nonzero;stroke:none"
             id="path1755" /></g><g
           id="g1757"
           transform="translate(295.1611,441.0522)"><path
             d="m 0,0 v -1.74 h -8.521 c -0.82,1.893 -1.433,3.489 -1.64,4.373 H 0 Z"
             style="fill:#111023;fill-opacity:1;fill-rule:nonzero;stroke:none"
             id="path1759" /></g></g></g><g
       id="g1761"><g
         id="g1763"
         clip-path="url(#clipPath1767)"><g
           id="g1769"><g
             id="g1771"><path
               d="m 229.514,444.722 v -6.374 h 30.799 v 0.964 4.373 1.037 z"
               style="fill:url(#linearGradient1779);stroke:none"
               id="path1781" /></g></g></g></g><g
       id="g1783"><g
         id="g1785"
         clip-path="url(#clipPath1789)"><g
           id="g1791"><g
             id="g1793"><path
               d="m 221.408,441.233 c -1.163,-0.677 -1.073,-3.859 -0.965,-5.365 v 0 l -4.39,-0.559 c -0.334,-4.382 7.898,-13.01 7.898,-13.01 v 0 l 6.78,5.157 c 0,0 -1.245,5.96 -2.831,9.359 v 0 c -0.415,0.893 -0.856,1.605 -1.298,1.992 v 0 c -1.708,1.472 -3.003,2.695 -4.234,2.695 v 0 c -0.322,0 -0.64,-0.084 -0.96,-0.269"
               style="fill:url(#linearGradient1801);stroke:none"
               id="path1803" /></g></g></g></g><g
       id="g1805"><g
         id="g1807"
         clip-path="url(#clipPath1811)"><g
           id="g1813"
           transform="translate(185.1069,451.6338)"><path
             d="m 0,0 c -0.453,0.992 -1.918,0.145 -1.469,-0.838 2.788,-6.102 2.43,-12.814 -0.911,-18.618 -0.543,-0.942 0.921,-1.79 1.464,-0.845 C 2.735,-13.959 3.037,-6.647 0,0"
             style="fill:#5b2b89;fill-opacity:1;fill-rule:nonzero;stroke:none"
             id="path1815" /></g></g></g><g
       id="g1817"><g
         id="g1819"
         clip-path="url(#clipPath1823)"
         style="fill:#152238;fill-opacity:1"><g
           id="g1825"
           style="fill:#152238;fill-opacity:1"><g
             id="g1827"
             style="fill:#152238;fill-opacity:1"><path
               d="m 305.863,415.419 v 5.229 l -6.257,0.686 z"
               style="fill:#152238;stroke:none;fill-opacity:1"
               id="path1837" /></g></g></g></g><g
       id="g1839"
       style="fill:#152238;fill-opacity:1"><g
         id="g1841"
         clip-path="url(#clipPath1845)"
         style="fill:#152238;fill-opacity:1"><g
           id="g1847"
           style="fill:#152238;fill-opacity:1"><g
             id="g1849"
             style="fill:#152238;fill-opacity:1"><path
               d="m 293.449,424.859 -6.871,-4.806 -3.084,-2.154 26.174,-35.506 c 0,0 23.912,5.797 29.34,6.816 v 0 c 5.427,1.009 5.264,7.249 6.157,12.884 v 0 c 0.829,5.23 -2.055,10.684 -6.771,11.352 v 0 c -0.351,0.054 -0.712,0.081 -1.091,0.072 v 0 c -5.346,-0.081 -19.123,-9.729 -19.123,-9.729 v 0 l -6.014,5.681 -6.303,5.95 -6.257,5.915 -1.749,1.65 -3.021,2.849 z"
               style="fill:#152238;stroke:none;fill-opacity:1"
               id="path1859" /></g></g></g></g><g
       id="g1861"
       style="fill:#152238;fill-opacity:1"><g
         id="g1863"
         clip-path="url(#clipPath1867)"
         style="fill:#152238;fill-opacity:1"><g
           id="g1869"
           style="fill:#152238;fill-opacity:1"><g
             id="g1871"
             style="fill:#152238;fill-opacity:1"><path
               d="m 312.166,409.469 6.014,-5.681 c 0,0 13.777,9.648 19.123,9.729 v 0 c 0.379,0.009 0.74,-0.018 1.091,-0.072 v 0 l -15.634,6.112 z"
               style="fill:#152238;stroke:none;fill-opacity:1"
               id="path1881" /></g></g></g></g><g
       id="g1883"
       style="fill:#152238;fill-opacity:1"><g
         id="g1885"
         clip-path="url(#clipPath1889)"
         style="fill:#152238;fill-opacity:1"><g
           id="g1891"
           style="fill:#152238;fill-opacity:1"><g
             id="g1893"
             style="fill:#152238;fill-opacity:1"><path
               d="m 223.951,422.298 -2.949,-2.245 22.127,-28.581 35.253,3.895 2.921,-23.586 -6.32,-29.908 c 16.22,-6.104 42.16,-3.146 50.815,-1.911 v 0 c 1.849,0.261 2.913,0.451 2.913,0.451 v 0 l 1.216,24.073 9.081,24.723 c -5.428,-1.019 -29.34,-6.816 -29.34,-6.816 v 0 l -26.174,35.506 3.084,2.154 c 0,0 -1.028,0.424 -2.219,1.281 v 0 l -32.719,-14.3 -20.909,20.422 z"
               style="fill:#152238;stroke:none;fill-opacity:1"
               id="path1903" /></g></g></g></g><g
       id="g1905"><g
         id="g1907"
         clip-path="url(#clipPath1911)"><g
           id="g1913"><g
             id="g1915"><path
               d="m 276.037,443.685 c -1.64,-0.658 -3.037,-1.406 -3.669,-2.001 v 0 c -0.496,-0.461 -0.279,-1.299 0.334,-2.372 v 0 c 1.911,-3.363 7.753,-8.998 8.051,-12.46 v 0 c 0.225,-2.579 2.056,-4.409 3.606,-5.518 v 0 c 1.191,-0.857 2.219,-1.281 2.219,-1.281 v 0 l 6.871,4.806 c 0,0 -4.32,8.647 -6.808,14.453 v 0 c -0.821,1.893 -1.434,3.49 -1.641,4.373 v 0 c -0.018,0.063 -0.036,0.127 -0.046,0.181 v 0 c -0.187,0.954 -1.171,1.325 -2.52,1.325 v 0 c -1.821,0 -4.309,-0.677 -6.397,-1.506"
               style="fill:url(#linearGradient1923);stroke:none"
               id="path1925" /></g></g></g></g><g
       id="g1927"
       style="fill:#152238;fill-opacity:1"><g
         id="g1929"
         clip-path="url(#clipPath1933)"
         style="fill:#152238;fill-opacity:1"><g
           id="g1935"
           style="fill:#152238;fill-opacity:1"><g
             id="g1937"
             style="fill:#152238;fill-opacity:1" /><g
             id="g1967"
             style="fill:#152238;fill-opacity:1"><g
               clip-path="url(#clipPath1941)"
               opacity="0.380005"
               id="g1965"
               style="fill:#152238;fill-opacity:1"><g
                 id="g1963"
                 style="fill:#152238;fill-opacity:1"><g
                   clip-path="url(#clipPath1945)"
                   id="g1961"
                   style="fill:#152238;fill-opacity:1"><g
                     id="g1959"
                     style="fill:#152238;fill-opacity:1"><g
                       id="g1957"
                       style="fill:#152238;fill-opacity:1"><path
                         d="m 329.928,364.486 c -40.048,8.495 -46.434,53.412 -46.434,53.412 l 26.175,-35.531 29.338,6.842 z"
                         style="fill:#152238;stroke:none;fill-opacity:1"
                         id="path1955" /></g></g></g></g></g></g></g></g></g><g
       id="g1969"><g
         id="g1971"
         clip-path="url(#clipPath1975)"><g
           id="g1977"><g
             id="g1979"><path
               d="m 296.919,445.046 -0.054,-0.324 c -0.162,-0.838 -0.225,-2.128 -0.225,-3.67 v 0 c 0,-6.681 1.217,-18.068 1.217,-18.068 v 0 l 1.749,-1.65 6.257,-0.686 10.45,0.686 -4.147,-11.865 10.594,10.088 -0.857,13.733 c 0,0 3.471,3.714 2.678,6.806 v 0 c -0.343,1.353 -1.199,1.525 -2.046,1.29 v 0 c -1.1,-0.298 -2.21,-1.29 -2.21,-1.29 v 0 c 0,0 -0.604,-7.771 -2.551,-7.537 v 0 c -1.947,0.244 -3.373,14.11 -3.373,14.11 v 0 c 0,0 -10.161,-2.857 -17.482,-1.623"
               style="fill:url(#linearGradient1987);stroke:none"
               id="path1989" /></g></g></g></g><g
       id="g1991"><g
         id="g1993"
         clip-path="url(#clipPath1997)"><g
           id="g1999"
           transform="translate(322.6157,451.4663)"><path
             d="m 0,0 -0.081,-10.081 c -1.1,-0.297 -2.209,-1.289 -2.209,-1.289 0,0 -0.604,-7.772 -2.552,-7.537 -1.947,0.243 -3.372,14.11 -3.372,14.11 0,0 -10.161,-2.858 -17.482,-1.623 v 0.009 c -2.3,0.379 -4.31,1.172 -5.644,2.579 -5.599,5.896 -3.652,9.242 4.372,7.42 C -18.943,1.767 -2.308,11.423 0,0"
             style="fill:#111023;fill-opacity:1;fill-rule:nonzero;stroke:none"
             id="path2001" /></g><g
           id="g2003"
           transform="translate(316.3135,421.334)"><path
             d="m 0,0 -4.147,-11.866 -6.303,5.951 v 5.229 z"
             style="fill:#f79244;fill-opacity:1;fill-rule:nonzero;stroke:none"
             id="path2005" /></g><g
           id="g2007"
           transform="translate(296.2202,443.2173)"><path
             d="M 0,0 C 1.611,0.809 3.287,0.905 4.981,0.294 6.017,-0.078 5.236,-1.601 4.213,-1.232 3.147,-0.849 1.942,-0.925 0.931,-1.434 -0.042,-1.922 -0.983,-0.494 0,0"
             style="fill:#111023;fill-opacity:1;fill-rule:nonzero;stroke:none"
             id="path2009" /></g><g
           id="g2011"
           transform="translate(313.001,439.2271)"><path
             d="M 0,0 C 0.053,-1.006 -0.454,-1.851 -1.132,-1.886 -1.81,-1.921 -2.402,-1.134 -2.455,-0.128 -2.507,0.878 -2,1.722 -1.322,1.758 -0.645,1.793 -0.053,1.006 0,0"
             style="fill:#111023;fill-opacity:1;fill-rule:nonzero;stroke:none"
             id="path2013" /></g><g
           id="g2015"
           transform="translate(313.918,443.6265)"><path
             d="m 0,0 c -1.687,0.636 -3.363,0.557 -4.985,-0.227 -0.991,-0.478 -0.056,-1.911 0.923,-1.439 1.02,0.494 2.227,0.543 3.286,0.143 C 0.242,-1.907 1.029,-0.389 0,0"
             style="fill:#111023;fill-opacity:1;fill-rule:nonzero;stroke:none"
             id="path2017" /></g><g
           id="g2019"
           transform="translate(302.0527,433.5205)"><path
             d="M 0,0 C 0.546,2.584 1.882,5.215 2.785,7.698 2.973,8.215 3.734,7.825 3.548,7.314 2.979,5.749 2.41,4.183 1.841,2.616 1.644,2.074 1.164,1.176 1.109,0.603 0.923,-1.347 1.815,-1.195 2.825,-1.665 3.325,-1.897 2.939,-2.66 2.441,-2.428 1.2,-1.851 -0.375,-1.773 0,0"
             style="fill:#f79244;fill-opacity:1;fill-rule:nonzero;stroke:none"
             id="path2021" /></g><g
           id="g2023"
           transform="translate(301.1104,438.9482)"><path
             d="m 0,0 c -0.799,0.644 -1.707,1.067 -2.73,1.198 -0.629,0.08 -0.891,-0.886 -0.252,-0.968 0.516,-0.066 1.004,-0.214 1.461,-0.434 -0.533,-0.173 -1.066,-0.347 -1.6,-0.52 -0.61,-0.198 -0.355,-1.165 0.259,-0.966 0.879,0.286 1.757,0.571 2.635,0.856 C 0.093,-0.73 0.313,-0.252 0,0"
             style="fill:#111023;fill-opacity:1;fill-rule:nonzero;stroke:none"
             id="path2025" /></g><g
           id="g2027"
           transform="translate(307.4683,425.895)"><path
             d="m 0,0 c 0,-1.774 -0.996,-3.213 -2.225,-3.213 -1.228,0 -2.224,1.439 -2.224,3.213 0,1.775 0.996,3.214 2.224,3.214 C -0.996,3.214 0,1.775 0,0"
             style="fill:#ffffff;fill-opacity:1;fill-rule:nonzero;stroke:none"
             id="path2029" /></g><g
           id="g2031"><g
             id="g2033" /><g
             id="g2063"><g
               clip-path="url(#clipPath2037)"
               opacity="0.5"
               id="g2061"><g
                 id="g2059"><g
                   clip-path="url(#clipPath2041)"
                   id="g2057"><g
                     id="g2055"><g
                       id="g2053"><path
                         d="M 611.753,126.547 H 210.494 c 0,0 -21.59,-14.333 10.508,-16.761 32.099,-2.427 82.165,-4.719 80.93,-15.64 -1.235,-10.921 -30.224,-8.764 -30.224,-28.044 0,-19.282 133.701,-14.832 133.701,-14.832 0,0 75.529,-0.989 86.285,11.775 10.755,12.764 -30.449,24.449 -22.97,29.483 7.478,5.034 61.77,-10.067 69.86,2.158 8.09,12.224 -1.618,19.955 13.304,21.573 14.921,1.617 57.348,-4.233 59.865,10.288"
                         style="fill:url(#linearGradient2049);stroke:none"
                         id="path2051" /></g></g></g></g></g></g></g></g></g><g
       id="g2065"><g
         id="g2067"
         clip-path="url(#clipPath2071)"><g
           id="g2073"><g
             id="g2075"><path
               d="m 551.079,101.157 c 0,-4.765 13.582,-8.629 30.337,-8.629 v 0 c 16.755,0 30.337,3.864 30.337,8.629 v 0 c 0,4.766 -13.582,8.629 -30.337,8.629 v 0 c -16.755,0 -30.337,-3.863 -30.337,-8.629"
               style="fill:url(#linearGradient2083);stroke:none"
               id="path2085" /></g></g></g></g><g
       id="g2087"><g
         id="g2089"
         clip-path="url(#clipPath2093)"><g
           id="g2095"><g
             id="g2097"><path
               d="m 231.888,93.696 c 0,-3.624 11.872,-6.562 26.516,-6.562 v 0 c 14.645,0 26.517,2.938 26.517,6.562 v 0 c 0,3.625 -11.872,6.563 -26.517,6.563 v 0 c -14.644,0 -26.516,-2.938 -26.516,-6.563"
               style="fill:url(#linearGradient2105);stroke:none"
               id="path2107" /></g></g></g></g><g
       id="g2109"><g
         id="g2111"
         clip-path="url(#clipPath2115)"><g
           id="g2117"
           transform="translate(440.5166,68.124)"><path
             d="m 0,0 c 0,-3.202 -13.483,-5.798 -30.117,-5.798 -16.634,0 -30.117,2.596 -30.117,5.798 0,3.201 13.483,5.797 30.117,5.797 C -13.483,5.797 0,3.201 0,0"
             style="fill:#e9fdff;fill-opacity:1;fill-rule:nonzero;stroke:none"
             id="path2119" /></g></g></g><g
       id="g2121"><g
         id="g2123"
         clip-path="url(#clipPath2127)"><g
           id="g2129"><g
             id="g2131"><path
               d="m 372.924,220.271 c -10.9,-10.119 -18.941,-27.889 -24.141,-53.31 v 0 c -3.179,-15.569 -4.069,-29.039 -2.659,-40.409 v 0 h 37.16 c -0.471,6.639 0.84,17.5 3.92,32.559 v 0 c 3.33,16.29 6.63,27.291 9.899,33.01 v 0 c 1.901,3.32 4.051,5.511 6.451,6.57 v 0 c 1.73,0.77 3.601,0.951 5.59,0.54 v 0 c 4.761,-0.98 7.499,-4.849 8.22,-11.61 v 0 c 0.72,-6.77 -0.54,-18.069 -3.77,-33.899 v 0 c -2.43,-11.87 -4.871,-20.92 -7.31,-27.17 v 0 h 40.74 c 1.89,5.85 3.55,12.29 4.98,19.319 v 0 c 0.95,4.65 1.7,9.111 2.24,13.38 v 0 c 2.33,18.2 0.989,33.02 -4.011,44.459 v 0 c -6.179,14.131 -17.769,22.932 -34.769,26.401 v 0 c -1.85,0.38 -3.66,0.68 -5.429,0.901 v 0 c -2.6,0.329 -5.12,0.494 -7.562,0.494 v 0 c -11.647,0 -21.497,-3.745 -29.549,-11.235"
               style="fill:url(#linearGradient2139);stroke:none"
               id="path2141" /></g></g></g></g><g
       id="g2143"><g
         id="g2145"
         clip-path="url(#clipPath2149)"><g
           id="g2151"><g
             id="g2153"><path
               d="m 362.504,222.392 c -10.89,-10.131 -18.94,-27.901 -24.13,-53.311 v 0 c -1.06,-5.17 -1.86,-10.12 -2.41,-14.83 v 0 c -1.21,-10.35 -1.2,-19.59 0.04,-27.699 v 0 h 37.11 c -0.05,0.239 -0.08,0.479 -0.11,0.73 v 0 c -0.78,6.469 0.48,17.789 3.78,33.949 v 0 c 3.33,16.29 6.63,27.29 9.91,33.001 v 0 c 3.27,5.719 7.279,8.089 12.039,7.11 v 0 c 1.951,-0.401 3.561,-1.28 4.821,-2.651 v 0 c 1.85,-1.98 2.97,-4.96 3.4,-8.949 v 0 c 0.72,-6.77 -0.54,-18.07 -3.77,-33.9 v 0 c -2.72,-13.28 -5.451,-23.04 -8.19,-29.29 v 0 h 40.93 c 2.16,6.4 4.05,13.54 5.67,21.43 v 0 c 4.99,24.44 4.4,43.719 -1.769,57.849 v 0 c -5.552,12.691 -15.481,21.09 -29.79,25.181 v 0 c -1.611,0.46 -3.271,0.869 -4.991,1.219 v 0 c -4.549,0.931 -8.877,1.396 -12.981,1.396 v 0 c -11.647,0 -21.499,-3.745 -29.559,-11.235"
               style="fill:url(#linearGradient2161);stroke:none"
               id="path2163" /></g></g></g></g><g
       id="g2165"><g
         id="g2167"
         clip-path="url(#clipPath2171)"><g
           id="g2173"
           transform="translate(468.1904,301.1299)"><path
             d="M 0,0 -0.25,-0.19 -26.381,-20.53 -42.69,-33.22 -56.271,-70.8 -60.04,-69.439 -46.051,-30.77 -2.45,3.16 Z"
             style="fill:#2a2a2a;fill-opacity:1;fill-rule:nonzero;stroke:none"
             id="path2175" /></g></g></g><g
       id="g2177"
       style="fill:#152238;fill-opacity:1;filter:url(#filter3116)"><g
         id="g2179"
         clip-path="url(#clipPath2183)"
         style="fill:#152238;fill-opacity:1"><g
           id="g2185"
           style="fill:#152238;fill-opacity:1"><g
             id="g2187"
             style="fill:#152238;fill-opacity:1"><path
               d="m 441.81,280.6 c 2.87,-1.19 5.09,-3.98 5.38,-7.1 v 0 c 0.421,-4.469 -2.67,-8.91 -1.51,-13.25 v 0 c 0.8,-2.99 3.5,-5.141 6.37,-6.3 v 0 c 3.21,-1.28 7.26,-2.01 8.601,-5.19 v 0 c 0.599,-1.41 0.488,-3.01 0.17,-4.51 v 0 c -0.801,-3.74 -2.852,-7.33 -2.411,-11.13 v 0 c 0.34,-2.889 2.109,-5.441 4.2,-7.469 v 0 c 2.091,-2.031 4.53,-3.661 6.72,-5.591 v 0 c 1.29,-1.149 2.55,-2.51 2.88,-4.22 v 0 c 0.47,-2.51 -1.19,-4.87 -2.76,-6.88 v 0 l 0.27,-0.47 c 3.971,2.349 8.02,4.769 10.99,8.3 v 0 c 2.97,3.53 4.709,8.44 3.309,12.84 v 0 c -1.019,3.179 -3.568,5.82 -4.069,9.13 v 0 c -0.78,5.18 3.689,9.851 3.751,15.09 v 0 c 0.059,4.67 -3.331,8.6 -6.701,11.83 v 0 c -1.63,1.57 -3.4,3.25 -3.81,5.47 v 0 c -0.261,1.45 0.1,2.93 0.52,4.35 v 0 c 1.06,3.52 2.55,7.02 2.53,10.7 v 0 c -0.05,5.809 -3.87,10.9 -8.299,14.74 v 0 z"
               style="fill:#152238;stroke:none;fill-opacity:1"
               id="path2197" /></g></g></g></g></g></svg>
